<svg width="49" height="48" viewBox="0 0 49 48" fill="none" xmlns="http://www.w3.org/2000/svg">
<path d="M0.666626 24C0.666626 10.7452 11.4118 0 24.6666 0C37.9215 0 48.6666 10.7452 48.6666 24C48.6666 37.2548 37.9215 48 24.6666 48C11.4118 48 0.666626 37.2548 0.666626 24Z" fill="#158E5E"/>
<path d="M32.6666 22.6875C33.0833 22.6875 33.5208 22.7083 33.9791 22.75V13.3125C33.9791 12.6042 33.7083 12 33.1666 11.5C32.6666 10.9583 32.0625 10.6875 31.3541 10.6875H15.3541C14.6041 10.6875 13.9583 10.9583 13.4166 11.5C12.9166 12 12.6666 12.6042 12.6666 13.3125V34.6875C12.6666 35.3958 12.9166 36.0208 13.4166 36.5625C13.9583 37.0625 14.6041 37.3125 15.3541 37.3125H25.0416C24.5 36.5625 24.0833 35.75 23.7916 34.875C23.5 33.9583 23.3541 33 23.3541 32C23.3541 30.7083 23.5833 29.5 24.0416 28.375C24.5416 27.25 25.2083 26.2708 26.0416 25.4375C26.9166 24.5625 27.9166 23.8958 29.0416 23.4375C30.1666 22.9375 31.375 22.6875 32.6666 22.6875ZM17.9791 22.6875V13.3125H24.6666V22.6875L21.3541 20.6875L17.9791 22.6875ZM32.6666 25.3125C31.4583 25.3125 30.3333 25.625 29.2916 26.25C28.2916 26.8333 27.4791 27.6458 26.8541 28.6875C26.2708 29.6875 25.9791 30.7917 25.9791 32C25.9791 33.2083 26.2708 34.3333 26.8541 35.375C27.4791 36.375 28.2916 37.1875 29.2916 37.8125C30.3333 38.3958 31.4583 38.6875 32.6666 38.6875C33.875 38.6875 34.9791 38.3958 35.9791 37.8125C37.0208 37.1875 37.8333 36.375 38.4166 35.375C39.0416 34.3333 39.3541 33.2083 39.3541 32C39.3541 30.7917 39.0416 29.6875 38.4166 28.6875C37.8333 27.6458 37.0208 26.8333 35.9791 26.25C34.9791 25.625 33.875 25.3125 32.6666 25.3125ZM30.9791 35.3125V28.6875L36.3541 32L30.9791 35.3125Z" fill="white"/>
</svg>
