<svg width="49" height="48" viewBox="0 0 49 48" fill="none" xmlns="http://www.w3.org/2000/svg">
<path d="M0.666626 24C0.666626 10.7452 11.4118 0 24.6666 0C37.9215 0 48.6666 10.7452 48.6666 24C48.6666 37.2548 37.9215 48 24.6666 48C11.4118 48 0.666626 37.2548 0.666626 24Z" fill="#158E5E"/>
<path d="M16.2916 25.875C17.875 25.5 19.3333 25.3125 20.6666 25.3125C22 25.3125 23.4583 25.5 25.0416 25.875C26.625 26.25 28.0625 26.875 29.3541 27.75C30.6875 28.625 31.3541 29.6042 31.3541 30.6875V34.6875H9.97913V30.6875C9.97913 29.6042 10.625 28.625 11.9166 27.75C13.25 26.875 14.7083 26.25 16.2916 25.875ZM28.6666 24C28.125 24 27.5416 23.8958 26.9166 23.6875C28.0833 22.3125 28.6666 20.6458 28.6666 18.6875C28.6666 17.8958 28.5 17 28.1666 16C27.8333 15 27.4166 14.2083 26.9166 13.625C27.5416 13.4167 28.125 13.3125 28.6666 13.3125C30.125 13.3125 31.375 13.8542 32.4166 14.9375C33.4583 15.9792 33.9791 17.2292 33.9791 18.6875C33.9791 20.1458 33.4583 21.3958 32.4166 22.4375C31.375 23.4792 30.125 24 28.6666 24ZM16.9166 22.4375C15.875 21.3958 15.3541 20.1458 15.3541 18.6875C15.3541 17.2292 15.875 15.9792 16.9166 14.9375C17.9583 13.8542 19.2083 13.3125 20.6666 13.3125C22.125 13.3125 23.375 13.8542 24.4166 14.9375C25.4583 15.9792 25.9791 17.2292 25.9791 18.6875C25.9791 20.1458 25.4583 21.3958 24.4166 22.4375C23.375 23.4792 22.125 24 20.6666 24C19.2083 24 17.9583 23.4792 16.9166 22.4375ZM30.9166 25.5C33.125 25.8333 35.0833 26.4583 36.7916 27.375C38.5 28.25 39.3541 29.3542 39.3541 30.6875V34.6875H33.9791V30.6875C33.9791 28.6458 32.9583 26.9167 30.9166 25.5Z" fill="white"/>
</svg>
