<svg width="65" height="48" viewBox="0 0 65 48" fill="none" xmlns="http://www.w3.org/2000/svg">
<path d="M0.666626 24C0.666626 10.7452 11.4118 0 24.6666 0H40.6666C53.9215 0 64.6666 10.7452 64.6666 24C64.6666 37.2548 53.9215 48 40.6666 48H24.6666C11.4118 48 0.666626 37.2548 0.666626 24Z" fill="#158E5E"/>
<path d="M24.2916 25.875C25.875 25.5 27.3333 25.3125 28.6666 25.3125C30 25.3125 31.4583 25.5 33.0416 25.875C34.625 26.25 36.0625 26.875 37.3541 27.75C38.6875 28.625 39.3541 29.6042 39.3541 30.6875V34.6875H17.9791V30.6875C17.9791 29.6042 18.625 28.625 19.9166 27.75C21.25 26.875 22.7083 26.25 24.2916 25.875ZM36.6666 24C36.125 24 35.5416 23.8958 34.9166 23.6875C36.0833 22.3125 36.6666 20.6458 36.6666 18.6875C36.6666 17.8958 36.5 17 36.1666 16C35.8333 15 35.4166 14.2083 34.9166 13.625C35.5416 13.4167 36.125 13.3125 36.6666 13.3125C38.125 13.3125 39.375 13.8542 40.4166 14.9375C41.4583 15.9792 41.9791 17.2292 41.9791 18.6875C41.9791 20.1458 41.4583 21.3958 40.4166 22.4375C39.375 23.4792 38.125 24 36.6666 24ZM24.9166 22.4375C23.875 21.3958 23.3541 20.1458 23.3541 18.6875C23.3541 17.2292 23.875 15.9792 24.9166 14.9375C25.9583 13.8542 27.2083 13.3125 28.6666 13.3125C30.125 13.3125 31.375 13.8542 32.4166 14.9375C33.4583 15.9792 33.9791 17.2292 33.9791 18.6875C33.9791 20.1458 33.4583 21.3958 32.4166 22.4375C31.375 23.4792 30.125 24 28.6666 24C27.2083 24 25.9583 23.4792 24.9166 22.4375ZM38.9166 25.5C41.125 25.8333 43.0833 26.4583 44.7916 27.375C46.5 28.25 47.3541 29.3542 47.3541 30.6875V34.6875H41.9791V30.6875C41.9791 28.6458 40.9583 26.9167 38.9166 25.5Z" fill="white"/>
</svg>
