<svg width="65" height="48" viewBox="0 0 65 48" fill="none" xmlns="http://www.w3.org/2000/svg">
<path d="M0.333252 24C0.333252 10.7452 11.0784 0 24.3333 0H40.3332C53.5881 0 64.3332 10.7452 64.3332 24C64.3332 37.2548 53.5881 48 40.3332 48H24.3333C11.0784 48 0.333252 37.2548 0.333252 24Z" fill="#158E5E"/>
<path d="M32.3333 9.3125L44.3333 14.6875V22.6875C44.3333 26.3958 43.1874 29.7917 40.8958 32.875C38.6041 35.9167 35.7499 37.8542 32.3333 38.6875C28.9166 37.8542 26.0624 35.9167 23.7708 32.875C21.4791 29.7917 20.3333 26.3958 20.3333 22.6875V14.6875L32.3333 9.3125Z" fill="white"/>
</svg>
