<svg width="49" height="48" viewBox="0 0 49 48" fill="none" xmlns="http://www.w3.org/2000/svg">
<path d="M0.666504 24C0.666504 10.7452 11.4117 0 24.6665 0C37.9213 0 48.6665 10.7452 48.6665 24C48.6665 37.2548 37.9213 48 24.6665 48C11.4117 48 0.666504 37.2548 0.666504 24Z" fill="#158E5E"/>
<path d="M27.9165 22.125C28.3332 22.5 28.8123 22.6875 29.354 22.6875C29.8957 22.6875 30.354 22.5 30.729 22.125C31.1457 21.7083 31.354 21.2292 31.354 20.6875C31.354 20.1458 31.1457 19.6875 30.729 19.3125C30.354 18.8958 29.8957 18.6875 29.354 18.6875C28.8123 18.6875 28.3332 18.8958 27.9165 19.3125C27.5415 19.6875 27.354 20.1458 27.354 20.6875C27.354 21.2292 27.5415 21.7083 27.9165 22.125ZM20.604 30.5625C21.8123 31.5208 23.1665 32 24.6665 32C26.1665 32 27.5207 31.5208 28.729 30.5625C29.9373 29.5625 30.8123 28.2708 31.354 26.6875H17.979C18.5207 28.2708 19.3957 29.5625 20.604 30.5625ZM21.354 19.3125C20.979 18.8958 20.5207 18.6875 19.979 18.6875C19.4373 18.6875 18.9582 18.8958 18.5415 19.3125C18.1665 19.6875 17.979 20.1458 17.979 20.6875C17.979 21.2292 18.1665 21.7083 18.5415 22.125C18.9582 22.5 19.4373 22.6875 19.979 22.6875C20.5207 22.6875 20.979 22.5 21.354 22.125C21.7707 21.7083 21.979 21.2292 21.979 20.6875C21.979 20.1458 21.7707 19.6875 21.354 19.3125ZM15.229 14.625C17.854 12 20.9998 10.6875 24.6665 10.6875C28.3332 10.6875 31.4582 12 34.0415 14.625C36.6665 17.2083 37.979 20.3333 37.979 24C37.979 27.6667 36.6665 30.8125 34.0415 33.4375C31.4582 36.0208 28.3332 37.3125 24.6665 37.3125C20.9998 37.3125 17.854 36.0208 15.229 33.4375C12.6457 30.8125 11.354 27.6667 11.354 24C11.354 20.3333 12.6457 17.2083 15.229 14.625Z" fill="white"/>
</svg>
