<svg width="20" height="19" viewBox="0 0 20 19" fill="none" xmlns="http://www.w3.org/2000/svg">
<g clip-path="url(#clip0_13301_145)">
<path d="M9.06123 0.615946C9.40498 -0.205316 10.5757 -0.205315 10.9195 0.615948L12.9482 5.46318C13.0932 5.80941 13.4209 6.04597 13.797 6.07593L19.063 6.49546C19.9552 6.56655 20.317 7.673 19.6372 8.25166L15.6251 11.6669C15.3386 11.9109 15.2134 12.2937 15.3009 12.6584L16.5267 17.7649C16.7344 18.6301 15.7872 19.3139 15.0234 18.8503L10.5149 16.1138C10.1929 15.9183 9.78786 15.9183 9.46583 16.1138L4.95735 18.8503C4.19347 19.3139 3.24631 18.6301 3.45399 17.7649L4.67978 12.6584C4.76733 12.2937 4.64218 11.9109 4.35561 11.6669L0.343419 8.25166C-0.336361 7.673 0.0254243 6.56655 0.917647 6.49546L6.18371 6.07593C6.55986 6.04597 6.88751 5.80941 7.03242 5.46318L9.06123 0.615946Z" fill="black"/>
</g>
<defs>
<clipPath id="clip0_13301_145">
<rect width="20" height="19" fill="white" transform="translate(-0.00964355)"/>
</clipPath>
</defs>
</svg>
