<svg width="49" height="48" viewBox="0 0 49 48" fill="none" xmlns="http://www.w3.org/2000/svg">
<path d="M0.666504 24C0.666504 10.7452 11.4117 0 24.6665 0C37.9213 0 48.6665 10.7452 48.6665 24C48.6665 37.2548 37.9213 48 24.6665 48C11.4117 48 0.666504 37.2548 0.666504 24Z" fill="#158E5E"/>
<path d="M17.604 28.1875C20.0623 27.1875 22.4165 26.6875 24.6665 26.6875C26.9165 26.6875 29.2498 27.1875 31.6665 28.1875C34.1248 29.1458 35.354 30.4167 35.354 32V34.6875H13.979V32C13.979 30.4167 15.1873 29.1458 17.604 28.1875ZM28.4165 22.4375C27.3748 23.4792 26.1248 24 24.6665 24C23.2082 24 21.9582 23.4792 20.9165 22.4375C19.8748 21.3958 19.354 20.1458 19.354 18.6875C19.354 17.2292 19.8748 15.9792 20.9165 14.9375C21.9582 13.8542 23.2082 13.3125 24.6665 13.3125C26.1248 13.3125 27.3748 13.8542 28.4165 14.9375C29.4582 15.9792 29.979 17.2292 29.979 18.6875C29.979 20.1458 29.4582 21.3958 28.4165 22.4375Z" fill="white"/>
</svg>
